<svg width="200" height="200" viewBox="0 0 200 200" fill="none" xmlns="http://www.w3.org/2000/svg">
<g clip-path="url(#clip0_111_39)">
<rect width="200" height="200" rx="30" fill="white"/>
<path d="M0 200V-20C7.5 -16.4643 15.1389 -12.5357 27.7778 -9C40.4167 -5.46429 58.1944 -1.53571 70.9722 -0.75C83.75 0.0357139 91.3889 -1.53571 102.639 -1.53571C113.889 -1.53571 128.889 0.0357139 138.611 -2.71429C148.333 -5.46429 152.639 -12.9286 161.944 -16.4643C171.25 -20 185.694 -20 200 -20V200H0Z" fill="url(#paint0_linear_111_39)"/>
<path d="M0 200V35.0001L35.9722 21.6429C46.3889 17.7143 54.4444 14.9643 64.7222 20.8572C75 26.7501 87.3611 40.8929 100.972 40.8929C114.583 40.8929 129.444 25.9643 139.444 25.9643C149.444 25.9643 154.306 40.1072 163.611 44.0358C172.917 47.9643 186.389 41.2858 200 35.0001V200H0Z" fill="url(#paint1_linear_111_39)"/>
<path d="M0 200V90C9.86111 95.8928 19.7222 101.786 30.1389 97.8571C40.5556 93.9285 51.3889 79.7857 62.9167 79.3928C74.4444 79 86.5278 92.3571 96.9444 91.1785C107.361 90 115.972 73.8928 128.056 69.1785C140.139 64.4642 155.833 71.5357 168.472 77.0357L200 90V200H0Z" fill="url(#paint2_linear_111_39)"/>
<path d="M0 200V145C13.1944 140.286 26.3889 135.572 38.6111 135.572C50.8333 135.572 61.9444 139.893 71.9444 148.143C81.9444 156.393 90.5556 168.964 100.417 162.286C110.278 155.607 121.111 130.464 131.111 126.536C141.111 122.607 150.139 140.286 161.528 146.964C172.917 153.643 186.389 149.322 200 145V200H0Z" fill="url(#paint3_linear_111_39)"/>
<g style="mix-blend-mode:hard-light">
<path d="M59.5625 87.0078C59.5625 87.9714 59.3802 88.8828 59.0156 89.7422C58.651 90.5885 58.1497 91.3307 57.5117 91.9688C56.8867 92.5938 56.1445 93.0885 55.2852 93.4531C54.4388 93.8177 53.5339 94 52.5703 94H35.5586V89.9961H52.5703C52.974 89.9961 53.3581 89.918 53.7227 89.7617C54.0872 89.6055 54.4062 89.3906 54.6797 89.1172C54.9531 88.8438 55.168 88.5312 55.3242 88.1797C55.4805 87.8151 55.5586 87.4245 55.5586 87.0078C55.5586 86.6042 55.4805 86.2201 55.3242 85.8555C55.168 85.4909 54.9531 85.1719 54.6797 84.8984C54.4062 84.625 54.0872 84.4102 53.7227 84.2539C53.3581 84.0846 52.974 84 52.5703 84H41.5547C40.7214 84 39.9401 83.8438 39.2109 83.5312C38.4818 83.2188 37.8438 82.7956 37.2969 82.2617C36.763 81.7148 36.3398 81.0768 36.0273 80.3477C35.7148 79.6185 35.5586 78.8372 35.5586 78.0039C35.5586 77.1706 35.7148 76.3893 36.0273 75.6602C36.3398 74.931 36.763 74.2995 37.2969 73.7656C37.8438 73.2188 38.4818 72.7891 39.2109 72.4766C39.9401 72.1641 40.7214 72.0078 41.5547 72.0078H57.5703V75.9922H41.5547C40.9948 75.9922 40.5195 76.1875 40.1289 76.5781C39.7513 76.9557 39.5625 77.431 39.5625 78.0039C39.5625 78.5638 39.7513 79.0391 40.1289 79.4297C40.5195 79.8073 40.9948 79.9961 41.5547 79.9961H52.5703C53.5339 79.9961 54.4388 80.1784 55.2852 80.543C56.1445 80.9076 56.8867 81.4089 57.5117 82.0469C58.1497 82.6849 58.651 83.4271 59.0156 84.2734C59.3802 85.1198 59.5625 86.0312 59.5625 87.0078ZM68.6641 67.0078C68.6641 67.4245 68.5859 67.8151 68.4297 68.1797C68.2734 68.5312 68.0586 68.8438 67.7852 69.1172C67.5117 69.3906 67.1927 69.6055 66.8281 69.7617C66.4635 69.918 66.0794 69.9961 65.6758 69.9961C65.2591 69.9961 64.8685 69.918 64.5039 69.7617C64.1393 69.6055 63.8203 69.3906 63.5469 69.1172C63.2734 68.8438 63.0586 68.5312 62.9023 68.1797C62.7461 67.8151 62.668 67.4245 62.668 67.0078C62.668 66.6042 62.7461 66.2201 62.9023 65.8555C63.0586 65.4909 63.2734 65.1719 63.5469 64.8984C63.8203 64.625 64.1393 64.4102 64.5039 64.2539C64.8685 64.0846 65.2591 64 65.6758 64C66.0794 64 66.4635 64.0846 66.8281 64.2539C67.1927 64.4102 67.5117 64.625 67.7852 64.8984C68.0586 65.1719 68.2734 65.4909 68.4297 65.8555C68.5859 66.2201 68.6641 66.6042 68.6641 67.0078ZM67.668 94H63.6641V72.0078H67.668V94ZM81.2812 94H80.2852C79.3086 94 78.3971 93.8177 77.5508 93.4531C76.7044 93.0885 75.9622 92.5938 75.3242 91.9688C74.6862 91.3307 74.1849 90.5885 73.8203 89.7422C73.4557 88.8828 73.2734 87.9714 73.2734 87.0078V64H77.2773V87.0078C77.2773 87.4245 77.3555 87.8151 77.5117 88.1797C77.668 88.5312 77.8828 88.8438 78.1562 89.1172C78.4297 89.3906 78.7487 89.6055 79.1133 89.7617C79.4779 89.918 79.8685 89.9961 80.2852 89.9961H81.2812V94ZM110.363 79C110.363 79.9766 110.181 80.888 109.816 81.7344C109.452 82.5807 108.951 83.3229 108.312 83.9609C107.688 84.5859 106.945 85.0807 106.086 85.4453C105.24 85.8099 104.335 85.9922 103.371 85.9922H88.0391C88.3255 86.5781 88.6836 87.1185 89.1133 87.6133C89.543 88.1081 90.0247 88.5312 90.5586 88.8828C91.0924 89.2344 91.6719 89.5078 92.2969 89.7031C92.9349 89.8984 93.599 89.9961 94.2891 89.9961H107.375V94H94.2891C92.7786 93.987 91.3594 93.694 90.0312 93.1211C88.7031 92.5352 87.5443 91.7474 86.5547 90.7578C85.5781 89.7552 84.8034 88.5898 84.2305 87.2617C83.6576 85.9336 83.3711 84.5143 83.3711 83.0039C83.3711 81.4935 83.6576 80.0742 84.2305 78.7461C84.8034 77.418 85.5781 76.2591 86.5547 75.2695C87.5443 74.2669 88.7031 73.4792 90.0312 72.9062C91.3594 72.3203 92.7786 72.0208 94.2891 72.0078H103.371C104.335 72.0078 105.24 72.1901 106.086 72.5547C106.945 72.9193 107.688 73.4206 108.312 74.0586C108.951 74.6836 109.452 75.4193 109.816 76.2656C110.181 77.112 110.363 78.0234 110.363 79ZM103.371 82.0078C103.775 82.0078 104.159 81.9297 104.523 81.7734C104.888 81.6172 105.207 81.4023 105.48 81.1289C105.754 80.8555 105.969 80.5365 106.125 80.1719C106.281 79.8073 106.359 79.4167 106.359 79C106.359 78.5964 106.281 78.2122 106.125 77.8477C105.969 77.4831 105.754 77.1641 105.48 76.8906C105.207 76.6172 104.888 76.4023 104.523 76.2461C104.159 76.0768 103.775 75.9922 103.371 75.9922H94.2891C93.4036 75.9922 92.5703 76.1484 91.7891 76.4609C91.0208 76.7734 90.3307 77.2031 89.7188 77.75C89.1198 78.2839 88.6185 78.9219 88.2148 79.6641C87.8242 80.3932 87.5703 81.1745 87.4531 82.0078H103.371ZM118.293 94H114.289V72.0078H129.289C130.799 72.0078 132.219 72.3008 133.547 72.8867C134.875 73.4596 136.034 74.2474 137.023 75.25C138.013 76.2396 138.794 77.4049 139.367 78.7461C139.94 80.0742 140.227 81.4935 140.227 83.0039V94H136.223V83.0039C136.223 82.0404 136.04 81.1354 135.676 80.2891C135.311 79.4427 134.816 78.707 134.191 78.082C133.566 77.444 132.831 76.9427 131.984 76.5781C131.151 76.2005 130.253 76.0052 129.289 75.9922H118.293V94ZM153 94H148.996V75.9922H143V72.0078H148.996V64H153V72.0078H167.004V75.9922H153V94ZM34.7578 134H30.7539V115.992H24.7578V112.008H30.7539V104H34.7578V112.008H48.7617V115.992H34.7578V134ZM77.8438 134H73.8398V123.004C73.8398 122.04 73.6576 121.135 73.293 120.289C72.9284 119.443 72.4336 118.707 71.8086 118.082C71.1836 117.444 70.4479 116.943 69.6016 116.578C68.7682 116.201 67.8698 116.005 66.9062 115.992H55.9102V134H51.9062V104H55.9102V112.008H66.9062C68.4167 112.008 69.8359 112.301 71.1641 112.887C72.4922 113.46 73.651 114.247 74.6406 115.25C75.6302 116.24 76.4115 117.405 76.9844 118.746C77.5573 120.074 77.8438 121.493 77.8438 123.004V134ZM108.84 119C108.84 119.977 108.658 120.888 108.293 121.734C107.928 122.581 107.427 123.323 106.789 123.961C106.164 124.586 105.422 125.081 104.562 125.445C103.716 125.81 102.811 125.992 101.848 125.992H86.5156C86.8021 126.578 87.1602 127.118 87.5898 127.613C88.0195 128.108 88.5013 128.531 89.0352 128.883C89.569 129.234 90.1484 129.508 90.7734 129.703C91.4115 129.898 92.0755 129.996 92.7656 129.996H105.852V134H92.7656C91.2552 133.987 89.8359 133.694 88.5078 133.121C87.1797 132.535 86.0208 131.747 85.0312 130.758C84.0547 129.755 83.2799 128.59 82.707 127.262C82.1341 125.934 81.8477 124.514 81.8477 123.004C81.8477 121.493 82.1341 120.074 82.707 118.746C83.2799 117.418 84.0547 116.259 85.0312 115.27C86.0208 114.267 87.1797 113.479 88.5078 112.906C89.8359 112.32 91.2552 112.021 92.7656 112.008H101.848C102.811 112.008 103.716 112.19 104.562 112.555C105.422 112.919 106.164 113.421 106.789 114.059C107.427 114.684 107.928 115.419 108.293 116.266C108.658 117.112 108.84 118.023 108.84 119ZM101.848 122.008C102.251 122.008 102.635 121.93 103 121.773C103.365 121.617 103.684 121.402 103.957 121.129C104.23 120.855 104.445 120.536 104.602 120.172C104.758 119.807 104.836 119.417 104.836 119C104.836 118.596 104.758 118.212 104.602 117.848C104.445 117.483 104.23 117.164 103.957 116.891C103.684 116.617 103.365 116.402 103 116.246C102.635 116.077 102.251 115.992 101.848 115.992H92.7656C91.8802 115.992 91.0469 116.148 90.2656 116.461C89.4974 116.773 88.8073 117.203 88.1953 117.75C87.5964 118.284 87.0951 118.922 86.6914 119.664C86.3008 120.393 86.0469 121.174 85.9297 122.008H101.848ZM116.77 134H112.766V112.008H133.859C135.37 112.008 136.789 112.301 138.117 112.887C139.445 113.46 140.598 114.247 141.574 115.25C142.564 116.24 143.345 117.405 143.918 118.746C144.491 120.074 144.777 121.493 144.777 123.004V134H140.773V123.004C140.773 122.04 140.591 121.135 140.227 120.289C139.862 119.443 139.367 118.707 138.742 118.082C138.117 117.444 137.382 116.943 136.535 116.578C135.702 116.201 134.81 116.005 133.859 115.992H130.773V134H126.77V115.992H116.77V134ZM175.793 119C175.793 119.977 175.611 120.888 175.246 121.734C174.882 122.581 174.38 123.323 173.742 123.961C173.117 124.586 172.375 125.081 171.516 125.445C170.669 125.81 169.764 125.992 168.801 125.992H153.469C153.755 126.578 154.113 127.118 154.543 127.613C154.973 128.108 155.454 128.531 155.988 128.883C156.522 129.234 157.102 129.508 157.727 129.703C158.365 129.898 159.029 129.996 159.719 129.996H172.805V134H159.719C158.208 133.987 156.789 133.694 155.461 133.121C154.133 132.535 152.974 131.747 151.984 130.758C151.008 129.755 150.233 128.59 149.66 127.262C149.087 125.934 148.801 124.514 148.801 123.004C148.801 121.493 149.087 120.074 149.66 118.746C150.233 117.418 151.008 116.259 151.984 115.27C152.974 114.267 154.133 113.479 155.461 112.906C156.789 112.32 158.208 112.021 159.719 112.008H168.801C169.764 112.008 170.669 112.19 171.516 112.555C172.375 112.919 173.117 113.421 173.742 114.059C174.38 114.684 174.882 115.419 175.246 116.266C175.611 117.112 175.793 118.023 175.793 119ZM168.801 122.008C169.204 122.008 169.589 121.93 169.953 121.773C170.318 121.617 170.637 121.402 170.91 121.129C171.184 120.855 171.398 120.536 171.555 120.172C171.711 119.807 171.789 119.417 171.789 119C171.789 118.596 171.711 118.212 171.555 117.848C171.398 117.483 171.184 117.164 170.91 116.891C170.637 116.617 170.318 116.402 169.953 116.246C169.589 116.077 169.204 115.992 168.801 115.992H159.719C158.833 115.992 158 116.148 157.219 116.461C156.451 116.773 155.76 117.203 155.148 117.75C154.549 118.284 154.048 118.922 153.645 119.664C153.254 120.393 153 121.174 152.883 122.008H168.801Z" fill="white"/>
</g>
</g>
<defs>
<linearGradient id="paint0_linear_111_39" x1="0" y1="90" x2="200" y2="90" gradientUnits="userSpaceOnUse">
<stop offset="0.05" stop-color="#002BDC" stop-opacity="0.266667"/>
<stop offset="0.95" stop-color="#32DED4" stop-opacity="0.266667"/>
</linearGradient>
<linearGradient id="paint1_linear_111_39" x1="0" y1="108.726" x2="200" y2="108.726" gradientUnits="userSpaceOnUse">
<stop offset="0.05" stop-color="#002BDC" stop-opacity="0.266667"/>
<stop offset="0.95" stop-color="#32DED4" stop-opacity="0.266667"/>
</linearGradient>
<linearGradient id="paint2_linear_111_39" x1="0" y1="133.817" x2="200" y2="133.817" gradientUnits="userSpaceOnUse">
<stop offset="0.05" stop-color="#002BDC" stop-opacity="0.266667"/>
<stop offset="0.95" stop-color="#32DED4" stop-opacity="0.266667"/>
</linearGradient>
<linearGradient id="paint3_linear_111_39" x1="0" y1="162.986" x2="200" y2="162.986" gradientUnits="userSpaceOnUse">
<stop offset="0.05" stop-color="#002BDC" stop-opacity="0.266667"/>
<stop offset="0.95" stop-color="#32DED4" stop-opacity="0.266667"/>
</linearGradient>
<clipPath id="clip0_111_39">
<rect width="200" height="200" rx="30" fill="white"/>
</clipPath>
</defs>
</svg>
